<svg xmlns="http://www.w3.org/2000/svg" viewBox="0 0 1200 760" role="img" aria-label="store">
<defs><linearGradient id="g" x1="0" y1="0" x2="1" y2="1"><stop stop-color="#0b1220"/><stop offset="1" stop-color="#173a5e"/></linearGradient><linearGradient id="a" x1="0" y1="0" x2="1" y2="1"><stop stop-color="#ff7a00"/><stop offset="1" stop-color="#ffb347"/></linearGradient><filter id="s"><feDropShadow dx="0" dy="18" stdDeviation="18" flood-opacity=".25"/></filter></defs>
<rect width="1200" height="760" rx="36" fill="url(#g)"/><circle cx="1020" cy="130" r="210" fill="#fff" opacity=".05"/><circle cx="110" cy="690" r="250" fill="#fff" opacity=".035"/><g transform="translate(150 150)" filter="url(#s)"><path d="M70 145h760v400H70z" fill="#f8fafc"/><path d="M20 145 90 25h720l70 120z" fill="url(#a)"/><path d="M100 145h100v100c0 45-100 45-100 0zm100 0h100v100c0 45-100 45-100 0zm100 0h100v100c0 45-100 45-100 0zm100 0h100v100c0 45-100 45-100 0zm100 0h100v100c0 45-100 45-100 0zm100 0h100v100c0 45-100 45-100 0zm100 0h100v100c0 45-100 45-100 0z" fill="#fff" opacity=".9"/><rect x="150" y="330" width="220" height="215" rx="15" fill="#dbeafe"/><rect x="500" y="310" width="250" height="120" rx="20" fill="#0f172a"/></g></svg>