<svg xmlns="http://www.w3.org/2000/svg" width="1200" height="900" viewBox="0 0 1200 900">
<defs>
 <linearGradient id="bg" x1="0" y1="0" x2="1" y2="1"><stop stop-color="#eef3f8"/><stop offset="1" stop-color="#d7e0e9"/></linearGradient>
 <linearGradient id="metal" x1="0" y1="0" x2="1" y2="0"><stop stop-color="#e8edf3"/><stop offset=".45" stop-color="#fdfefe"/><stop offset="1" stop-color="#b7c0ca"/></linearGradient>
 <linearGradient id="darkmetal" x1="0" y1="0" x2="1" y2="1"><stop stop-color="#0b1018"/><stop offset=".45" stop-color="#232b36"/><stop offset="1" stop-color="#05070b"/></linearGradient>
 <linearGradient id="blue" x1="0" y1="0" x2="1" y2="1"><stop stop-color="#55a7ff"/><stop offset="1" stop-color="#1766e6"/></linearGradient>
 <filter id="shadow" x="-30%" y="-30%" width="160%" height="160%"><feDropShadow dx="0" dy="28" stdDeviation="25" flood-color="#000" flood-opacity=".35"/></filter>
 <filter id="soft"><feGaussianBlur stdDeviation="28"/></filter>
</defs>
<rect width="100%" height="100%" fill="url(#bg)"/>
<circle cx="1000" cy="130" r="220" fill="#3d7dff" opacity=".14" filter="url(#soft)"/>
<circle cx="200" cy="780" r="260" fill="#70cfff" opacity=".10" filter="url(#soft)"/>
<ellipse cx="600" cy="720" rx="325" ry="32" fill="#000" opacity=".22"/><g filter="url(#shadow)" transform="translate(235,260)"><rect width="730" height="390" rx="42" fill="url(#darkmetal)"/><rect x="38" y="48" width="500" height="290" rx="26" fill="#0a111a" stroke="#536375" stroke-width="5"/><rect x="560" y="55" width="125" height="88" rx="16" fill="#101a27"/><text x="622" y="90" text-anchor="middle" font-family="Arial" font-size="25" fill="#68bbff">12:30</text><circle cx="622" cy="208" r="52" fill="#29394a"/><circle cx="622" cy="208" r="33" fill="#63778b"/><rect x="575" y="292" width="94" height="15" rx="7" fill="#53687f"/></g></svg>